<?xml version="1.0" encoding="UTF-8"?>
<svg xmlns="http://www.w3.org/2000/svg" xmlns:xlink="http://www.w3.org/1999/xlink" width="20pt" height="20pt" viewBox="0 0 20 20" version="1.1">
<g id="surface1">
<path style=" stroke:none;fill-rule:nonzero;fill:rgb(0%,0%,0%);fill-opacity:1;" d="M 18.125 2.5 L 1.875 2.5 C 0.839844 2.5 0 3.339844 0 4.375 L 0 15.625 C 0 16.660156 0.839844 17.5 1.875 17.5 L 18.125 17.5 C 19.160156 17.5 20 16.660156 20 15.625 L 20 4.375 C 20 3.339844 19.160156 2.5 18.125 2.5 Z M 18.125 4.375 L 18.125 5.96875 C 17.25 6.683594 15.851562 7.792969 12.867188 10.128906 C 12.210938 10.644531 10.90625 11.890625 10 11.875 C 9.09375 11.890625 7.789062 10.644531 7.132812 10.128906 C 4.148438 7.792969 2.75 6.683594 1.875 5.96875 L 1.875 4.375 Z M 1.875 15.625 L 1.875 8.375 C 2.769531 9.085938 4.039062 10.089844 5.972656 11.601562 C 6.828125 12.273438 8.324219 13.757812 10 13.75 C 11.667969 13.757812 13.144531 12.296875 14.027344 11.605469 C 15.960938 10.089844 17.230469 9.089844 18.125 8.375 L 18.125 15.625 Z M 1.875 15.625 "/>
</g>
</svg>
