<?xml version="1.0" encoding="UTF-8"?>
<svg xmlns="http://www.w3.org/2000/svg" xmlns:xlink="http://www.w3.org/1999/xlink" width="20pt" height="20pt" viewBox="0 0 20 20" version="1.1">
<g id="surface1">
<path style=" stroke:none;fill-rule:nonzero;fill:rgb(0%,0%,0%);fill-opacity:1;" d="M 19.320312 6.425781 C 19.136719 6.273438 14.957031 2.914062 14.035156 2.183594 C 13.171875 1.492188 11.695312 0 10 0 C 8.3125 0 6.851562 1.472656 5.964844 2.183594 C 5.007812 2.941406 0.84375 6.292969 0.683594 6.421875 C 0.25 6.777344 0 7.308594 0 7.871094 L 0 18.125 C 0 19.160156 0.839844 20 1.875 20 L 18.125 20 C 19.160156 20 20 19.160156 20 18.125 L 20 7.871094 C 20 7.3125 19.75 6.78125 19.320312 6.425781 Z M 18.125 17.890625 C 18.125 18.019531 18.019531 18.125 17.890625 18.125 L 2.109375 18.125 C 1.980469 18.125 1.875 18.019531 1.875 17.890625 L 1.875 7.980469 C 1.875 7.910156 1.90625 7.84375 1.960938 7.800781 C 2.582031 7.300781 6.210938 4.378906 7.132812 3.648438 C 7.84375 3.082031 9.078125 1.875 10 1.875 C 10.925781 1.875 12.183594 3.101562 12.867188 3.648438 C 13.789062 4.378906 17.417969 7.300781 18.039062 7.800781 C 18.09375 7.84375 18.125 7.914062 18.125 7.984375 Z M 16.875 10.558594 C 17.042969 10.761719 17.011719 11.058594 16.808594 11.222656 C 15.675781 12.132812 14.492188 13.082031 14.035156 13.441406 C 13.148438 14.152344 11.6875 15.625 10 15.625 C 8.300781 15.625 6.824219 14.132812 5.964844 13.441406 C 5.523438 13.09375 4.332031 12.136719 3.191406 11.222656 C 2.988281 11.058594 2.957031 10.761719 3.125 10.558594 L 3.722656 9.835938 C 3.882812 9.636719 4.175781 9.605469 4.375 9.765625 C 5.492188 10.664062 6.664062 11.605469 7.132812 11.976562 C 7.816406 12.523438 9.074219 13.75 10 13.75 C 10.921875 13.75 12.15625 12.542969 12.867188 11.976562 C 13.335938 11.605469 14.507812 10.664062 15.625 9.765625 C 15.824219 9.605469 16.117188 9.636719 16.28125 9.835938 Z M 16.875 10.558594 "/>
</g>
</svg>
